<svg xmlns="http://www.w3.org/2000/svg" width="24" height="24" viewBox="0 0 24 24" fill="none" stroke="currentColor" stroke-width="2" stroke-linecap="round" stroke-linejoin="round">
  <path d="M12 15.5a3.5 3.5 0 1 0 0-7 3.5 3.5 0 0 0 0 7Z"/>
  <path d="M19.4 15a1.7 1.7 0 0 0 .34 1.88l.06.06-2.83 2.83-.06-.06a1.7 1.7 0 0 0-1.88-.34 1.7 1.7 0 0 0-1.03 1.56V21h-4v-.08A1.7 1.7 0 0 0 8.97 19.4a1.7 1.7 0 0 0-1.88.34l-.06.06-2.83-2.83.06-.06A1.7 1.7 0 0 0 4.6 15a1.7 1.7 0 0 0-1.52-1H3v-4h.08A1.7 1.7 0 0 0 4.6 8.97a1.7 1.7 0 0 0-.34-1.88l-.06-.06L7.03 4.2l.06.06a1.7 1.7 0 0 0 1.88.34A1.7 1.7 0 0 0 10 3.08V3h4v.08a1.7 1.7 0 0 0 1.03 1.52 1.7 1.7 0 0 0 1.88-.34l.06-.06 2.83 2.83-.06.06a1.7 1.7 0 0 0-.34 1.88A1.7 1.7 0 0 0 20.92 10H21v4h-.08A1.7 1.7 0 0 0 19.4 15Z"/>
</svg>
